<svg width="22" height="20" viewBox="0 0 22 20" fill="none" xmlns="http://www.w3.org/2000/svg">
<path d="M20.0091 1L12.1963 6.78095L13.6492 3.37405L20.0091 1Z" fill="#E17726" stroke="#E17726" stroke-width="0.25" stroke-linecap="round" stroke-linejoin="round"/>
<path d="M1.99414 1L9.73743 6.8349L8.35416 3.37404L1.99414 1Z" fill="#E27625" stroke="#E27625" stroke-width="0.25" stroke-linecap="round" stroke-linejoin="round"/>
<path d="M17.1979 14.4041L15.1191 17.5798L19.5704 18.8054L20.8455 14.4735L17.1979 14.4041Z" fill="#E27625" stroke="#E27625" stroke-width="0.25" stroke-linecap="round" stroke-linejoin="round"/>
<path d="M1.16211 14.4735L2.42947 18.8054L6.87298 17.5798L4.80191 14.4041L1.16211 14.4735Z" fill="#E27625" stroke="#E27625" stroke-width="0.25" stroke-linecap="round" stroke-linejoin="round"/>
<path d="M6.62901 9.03932L5.39258 10.9047L9.79743 11.1051L9.65062 6.36469L6.62901 9.03932Z" fill="#E27625" stroke="#E27625" stroke-width="0.25" stroke-linecap="round" stroke-linejoin="round"/>
<path d="M15.3646 9.03945L12.2968 6.31085L12.1963 11.1052L16.6011 10.9048L15.3646 9.03945Z" fill="#E27625" stroke="#E27625" stroke-width="0.25" stroke-linecap="round" stroke-linejoin="round"/>
<path d="M6.87109 17.5797L9.53716 16.2925L7.24204 14.5043L6.87109 17.5797Z" fill="#E27625" stroke="#E27625" stroke-width="0.25" stroke-linecap="round" stroke-linejoin="round"/>
<path d="M12.4609 16.2925L15.1193 17.5797L14.7561 14.5043L12.4609 16.2925Z" fill="#E27625" stroke="#E27625" stroke-width="0.25" stroke-linecap="round" stroke-linejoin="round"/>
<path d="M15.1193 17.5798L12.4609 16.2926L12.6773 18.0192L12.6541 18.7514L15.1193 17.5798Z" fill="#D5BFB2" stroke="#D5BFB2" stroke-width="0.25" stroke-linecap="round" stroke-linejoin="round"/>
<path d="M6.87109 17.5798L9.34401 18.7514L9.32855 18.0192L9.53716 16.2926L6.87109 17.5798Z" fill="#D5BFB2" stroke="#D5BFB2" stroke-width="0.25" stroke-linecap="round" stroke-linejoin="round"/>
<path d="M9.39279 13.3636L7.18262 12.7161L8.74363 11.9993L9.39279 13.3636Z" fill="#233447" stroke="#233447" stroke-width="0.25" stroke-linecap="round" stroke-linejoin="round"/>
<path d="M12.6045 13.3636L13.2537 11.9993L14.8224 12.7161L12.6045 13.3636Z" fill="#233447" stroke="#233447" stroke-width="0.25" stroke-linecap="round" stroke-linejoin="round"/>
<path d="M6.87768 17.5798L7.26409 14.4041L4.80664 14.4735L6.87768 17.5798Z" fill="#CC6228" stroke="#CC6228" stroke-width="0.25" stroke-linecap="round" stroke-linejoin="round"/>
<path d="M14.7422 14.4041L15.1209 17.5798L17.1996 14.4735L14.7422 14.4041Z" fill="#CC6228" stroke="#CC6228" stroke-width="0.25" stroke-linecap="round" stroke-linejoin="round"/>
<path d="M16.6011 10.9047L12.1963 11.1051L12.6058 13.3635L13.255 11.9992L14.8238 12.716L16.6011 10.9047Z" fill="#CC6228" stroke="#CC6228" stroke-width="0.25" stroke-linecap="round" stroke-linejoin="round"/>
<path d="M7.1777 12.716L8.73871 11.9992L9.38787 13.3635L9.79743 11.1051L5.39258 10.9047L7.1777 12.716Z" fill="#CC6228" stroke="#CC6228" stroke-width="0.25" stroke-linecap="round" stroke-linejoin="round"/>
<path d="M5.39258 10.9047L7.23954 14.5043L7.17768 12.716L5.39258 10.9047Z" fill="#E27525" stroke="#E27525" stroke-width="0.25" stroke-linecap="round" stroke-linejoin="round"/>
<path d="M14.8264 12.716L14.7568 14.5043L16.6038 10.9047L14.8264 12.716Z" fill="#E27525" stroke="#E27525" stroke-width="0.25" stroke-linecap="round" stroke-linejoin="round"/>
<path d="M9.80122 11.105L9.3916 13.3635L9.90936 16.0304L10.0253 12.5156L9.80122 11.105Z" fill="#E27525" stroke="#E27525" stroke-width="0.25" stroke-linecap="round" stroke-linejoin="round"/>
<path d="M12.1959 11.105L11.9795 12.5079L12.0877 16.0304L12.6055 13.3635L12.1959 11.105Z" fill="#E27525" stroke="#E27525" stroke-width="0.25" stroke-linecap="round" stroke-linejoin="round"/>
<path d="M12.6086 13.3636L12.0908 16.0305L12.4618 16.2926L14.7569 14.5044L14.8265 12.7161L12.6086 13.3636Z" fill="#F5841F" stroke="#F5841F" stroke-width="0.25" stroke-linecap="round" stroke-linejoin="round"/>
<path d="M7.18262 12.7161L7.24448 14.5044L9.5396 16.2926L9.91055 16.0305L9.39279 13.3636L7.18262 12.7161Z" fill="#F5841F" stroke="#F5841F" stroke-width="0.25" stroke-linecap="round" stroke-linejoin="round"/>
<path d="M12.6515 18.7514L12.6746 18.0191L12.4738 17.8495H9.52175L9.32855 18.0191L9.34401 18.7514L6.87109 17.5798L7.7366 18.2889L9.49082 19.4991H12.4969L14.2589 18.2889L15.1166 17.5798L12.6515 18.7514Z" fill="#C0AC9D" stroke="#C0AC9D" stroke-width="0.25" stroke-linecap="round" stroke-linejoin="round"/>
<path d="M12.4618 16.2924L12.0908 16.0304H9.9116L9.54071 16.2924L9.33203 18.019L9.52524 17.8495H12.4773L12.6782 18.019L12.4618 16.2924Z" fill="#161616" stroke="#161616" stroke-width="0.25" stroke-linecap="round" stroke-linejoin="round"/>
<path d="M20.3433 7.15862L21.0002 3.96756L20.011 1L12.4609 6.58828L15.3666 9.03937L19.47 10.2341L20.3742 9.17815L19.9801 8.89292L20.606 8.32257L20.1269 7.95257L20.7529 7.47467L20.3433 7.15862Z" fill="#763E1A" stroke="#763E1A" stroke-width="0.25" stroke-linecap="round" stroke-linejoin="round"/>
<path d="M1 3.96756L1.66459 7.15862L1.23956 7.47467L1.87324 7.95257L1.39412 8.32257L2.02007 8.89292L1.62595 9.17815L2.53011 10.2341L6.63361 9.03937L9.53922 6.58828L1.98916 1L1 3.96756Z" fill="#763E1A" stroke="#763E1A" stroke-width="0.25" stroke-linecap="round" stroke-linejoin="round"/>
<path d="M19.4708 10.2341L15.3673 9.03943L16.6038 10.9048L14.7568 14.5043L17.1988 14.4735H20.8463L19.4708 10.2341Z" fill="#F5841F" stroke="#F5841F" stroke-width="0.25" stroke-linecap="round" stroke-linejoin="round"/>
<path d="M6.63338 9.03943L2.52993 10.2341L1.16211 14.4735H4.80191L7.24387 14.5043L5.39695 10.9048L6.63338 9.03943Z" fill="#F5841F" stroke="#F5841F" stroke-width="0.25" stroke-linecap="round" stroke-linejoin="round"/>
<path d="M12.199 11.1051L12.4618 6.58821L13.6518 3.37402H8.35059L9.54065 6.58821L9.80339 11.1051L9.90386 12.5233L9.9116 16.0305H12.0908L12.0986 12.5233L12.199 11.1051Z" fill="#F5841F" stroke="#F5841F" stroke-width="0.25" stroke-linecap="round" stroke-linejoin="round"/>
</svg>
