<svg width="16" height="18" viewBox="0 0 16 18" fill="none" xmlns="http://www.w3.org/2000/svg">
<path fill-rule="evenodd" clip-rule="evenodd" d="M7.10003 0.199985C7.41933 -0.0666686 7.88368 -0.0666607 8.20297 0.200003C10.5683 2.17552 13.2655 2.16021 14.3083 2.15429C14.3604 2.154 14.4083 2.15372 14.4518 2.15372C14.6823 2.15372 14.903 2.24615 15.0647 2.41031C15.2264 2.57447 15.3155 2.79662 15.3121 3.02702C15.2627 6.29751 15.1317 8.63127 14.8745 10.3415C14.6175 12.0506 14.2237 13.2207 13.5896 14.1019C12.9512 14.9893 12.1305 15.4933 11.2552 15.977C11.1035 16.0608 10.9489 16.1447 10.7906 16.2305C10.0221 16.6474 9.16735 17.1111 8.15295 17.8387C7.85322 18.0538 7.44976 18.0538 7.15002 17.8387C6.13659 17.1118 5.28296 16.6483 4.51561 16.2318C4.35657 16.1454 4.20123 16.0611 4.04894 15.9768C3.17428 15.493 2.35471 14.9888 1.71746 14.1012C1.08482 13.2199 0.69226 12.0498 0.436214 10.341C0.179991 8.63104 0.04948 6.29743 9.81941e-05 3.02703C-0.00338076 2.79664 0.0857082 2.57447 0.247407 2.41031C0.409105 2.24616 0.629897 2.15372 0.860319 2.15372C0.903384 2.15372 0.950832 2.154 1.00242 2.15429C2.0368 2.16022 4.73428 2.17567 7.10003 0.199985ZM1.73608 3.86921C1.79437 6.66151 1.92134 8.64105 2.13786 10.086C2.37634 11.6777 2.71251 12.5368 3.1152 13.0977C3.51326 13.6522 4.03561 14.0031 4.88187 14.4712C5.01973 14.5475 5.16512 14.6263 5.31778 14.7091C5.96975 15.0627 6.75434 15.4882 7.6515 16.0921C8.54988 15.4874 9.33566 15.0616 9.9887 14.7078C10.1407 14.6254 10.2855 14.547 10.4229 14.4711C11.2702 14.0028 11.7938 13.6517 12.193 13.097C12.5966 12.536 12.9337 11.6769 13.173 10.0856C13.3902 8.64083 13.5177 6.66148 13.5761 3.86937C12.2393 3.82713 9.87673 3.5529 7.65147 1.94888C5.42878 3.55099 3.06958 3.82647 1.73608 3.86921Z" fill="#3375BB"/>
</svg>
