<svg width="19" height="18" viewBox="0 0 19 18" fill="none" xmlns="http://www.w3.org/2000/svg">
<path d="M5.5047 7.56375L9.00031 4.06827L12.4978 7.56559L14.5318 5.5316L9.00031 0L3.4707 5.52975L5.5047 7.56375Z" fill="#F3BA2F"/>
<path d="M4.06814 8.99972L2.03418 6.96576L0.00012189 8.99982L2.03408 11.0338L4.06814 8.99972Z" fill="#F3BA2F"/>
<path d="M5.50573 10.4363L9.00135 13.9318L12.4987 10.4346L14.5338 12.4674L14.5328 12.4686L9.00135 18L3.47159 12.4704L3.46875 12.4676L5.50573 10.4363Z" fill="#F3BA2F"/>
<path d="M15.9698 11.0347L18.0039 9.00061L15.9699 6.96665L13.9359 9.00071L15.9698 11.0347Z" fill="#F3BA2F"/>
<path d="M11.0646 8.99887H11.0655L9.00151 6.93488L7.47619 8.46019H7.47605L7.3009 8.63549L6.93937 8.99702L6.93652 8.99986L6.93937 9.00285L9.00151 11.065L11.0655 9.001L11.0665 8.99986L11.0646 8.99887Z" fill="#F3BA2F"/>
</svg>
